<svg width="33" height="21" viewBox="0 0 33 21" fill="none" xmlns="http://www.w3.org/2000/svg">
<path d="M22.1364 1.5H1V14.5H22.1364V1.5Z" stroke="black" stroke-width="2" stroke-linecap="round" stroke-linejoin="round"/>
<path d="M22.1365 6.5H27.7728L32.0001 9.5V14.5H22.1365V6.5Z" stroke="black" stroke-width="2" stroke-linecap="round" stroke-linejoin="round"/>
<path d="M7.34084 19.5C9.28639 19.5 10.8636 18.3807 10.8636 17C10.8636 15.6193 9.28639 14.5 7.34084 14.5C5.39529 14.5 3.81812 15.6193 3.81812 17C3.81812 18.3807 5.39529 19.5 7.34084 19.5Z" stroke="black" stroke-width="2" stroke-linecap="round" stroke-linejoin="round"/>
<path d="M25.6592 19.5C27.6048 19.5 29.1819 18.3807 29.1819 17C29.1819 15.6193 27.6048 14.5 25.6592 14.5C23.7137 14.5 22.1365 15.6193 22.1365 17C22.1365 18.3807 23.7137 19.5 25.6592 19.5Z" stroke="black" stroke-width="2" stroke-linecap="round" stroke-linejoin="round"/>
</svg>
