<svg width="48" height="44" viewBox="0 0 48 44" fill="none" xmlns="http://www.w3.org/2000/svg">
<path d="M47.8957 9.91978L42.313 30.4288C41.8957 31.8893 40.8 32.8631 39.4957 32.8631H17.9478C16.6957 32.8631 15.4957 31.9502 15.0783 30.6113L6.83478 4.8686H2.08696C0.93913 4.8686 0 3.77317 0 2.4343C0 1.09544 0.93913 0 2.08696 0H8.29565C9.18261 0 9.96522 0.669433 10.2783 1.64315L18.7826 27.9945H38.6087L43.0435 11.5629H18.4696C17.3217 11.5629 16.3826 10.4675 16.3826 9.12863C16.3826 7.78976 17.3217 6.69433 18.4696 6.69433H45.913C46.5913 6.69433 47.2174 7.12033 47.5826 7.72891C48 8.33748 48.1044 9.18949 47.8957 9.91978ZM18.9913 36.0885C18.1043 36.0885 17.2174 36.5145 16.5913 37.2448C15.9652 37.9751 15.6 39.0097 15.6 40.0443C15.6 41.0788 15.9652 42.1134 16.5913 42.8437C17.2174 43.574 18.1043 44 18.9913 44C19.8783 44 20.7652 43.574 21.3913 42.8437C22.0174 42.1134 22.3826 41.0788 22.3826 40.0443C22.3826 39.0097 22.0174 37.9751 21.3913 37.2448C20.7652 36.5145 19.8783 36.0885 18.9913 36.0885ZM37.7217 36.0885C36.8348 36.0885 35.9478 36.5145 35.3217 37.2448C34.6957 37.9751 34.3304 39.0097 34.3304 40.0443C34.3304 41.0788 34.6957 42.1134 35.3217 42.8437C35.9478 43.574 36.8348 44 37.7217 44C38.6087 44 39.4957 43.574 40.1217 42.8437C40.7478 42.1134 41.113 41.0788 41.113 40.0443C41.113 39.0097 40.7478 37.9751 40.1217 37.2448C39.4957 36.5145 38.6087 36.0885 37.7217 36.0885Z" fill="#C5942E"/>
</svg>
