<svg width="38" height="38" viewBox="0 0 38 38" fill="none" xmlns="http://www.w3.org/2000/svg">
<path d="M27.5 2H10.5C5.80558 2 2 5.80558 2 10.5V27.5C2 32.1944 5.80558 36 10.5 36H27.5C32.1944 36 36 32.1944 36 27.5V10.5C36 5.80558 32.1944 2 27.5 2Z" stroke="#C5942E" stroke-width="3" stroke-linecap="round" stroke-linejoin="round"/>
<path d="M25.7999 17.9285C26.0097 19.3434 25.768 20.7883 25.1093 22.0579C24.4505 23.3274 23.4082 24.3569 22.1307 25C20.8531 25.643 19.4053 25.8669 17.9931 25.6396C16.581 25.4124 15.2765 24.7457 14.2651 23.7343C13.2538 22.7229 12.587 21.4184 12.3598 20.0063C12.1326 18.5942 12.3564 17.1464 12.9994 15.8688C13.6425 14.5912 14.672 13.5489 15.9416 12.8901C17.2111 12.2314 18.6561 11.9897 20.0709 12.1995C21.5141 12.4135 22.8501 13.086 23.8818 14.1177C24.9134 15.1493 25.5859 16.4854 25.7999 17.9285Z" stroke="#C5942E" stroke-width="3" stroke-linecap="round" stroke-linejoin="round"/>
<path d="M28.3501 9.6499H28.3671" stroke="#C5942E" stroke-width="3" stroke-linecap="round" stroke-linejoin="round"/>
</svg>
