<svg width="33" height="36" viewBox="0 0 33 36" fill="none" xmlns="http://www.w3.org/2000/svg">
<path d="M32 14.9091C32 25.7273 16.5 35 16.5 35C16.5 35 1 25.7273 1 14.9091C1 11.2202 2.63303 7.68234 5.53984 5.07388C8.44666 2.46542 12.3891 1 16.5 1C20.6109 1 24.5533 2.46542 27.4602 5.07388C30.367 7.68234 32 11.2202 32 14.9091Z" stroke="#C5942E" stroke-width="2" stroke-linecap="round" stroke-linejoin="round"/>
<path d="M17.0344 21C20.5766 21 23.4482 18.3137 23.4482 15C23.4482 11.6863 20.5766 9 17.0344 9C13.4922 9 10.6206 11.6863 10.6206 15C10.6206 18.3137 13.4922 21 17.0344 21Z" stroke="#C5942E" stroke-width="2" stroke-linecap="round" stroke-linejoin="round"/>
</svg>
