<svg width="33" height="36" viewBox="0 0 33 36" fill="none" xmlns="http://www.w3.org/2000/svg">
<path d="M31.999 26.4555V31.5739C32.0008 32.0491 31.9119 32.5194 31.738 32.9547C31.5641 33.3901 31.309 33.7809 30.9891 34.1021C30.6693 34.4234 30.2916 34.6679 29.8804 34.8202C29.4692 34.9724 29.0335 35.0289 28.6011 34.9862C23.8048 34.4157 19.1977 32.6217 15.1498 29.7484C11.3838 27.1289 8.19086 23.6339 5.79777 19.5116C3.16358 15.0607 1.52427 9.99313 1.01265 4.71951C0.973701 4.24772 1.02493 3.77221 1.16306 3.32327C1.3012 2.87432 1.52323 2.46178 1.815 2.11191C2.10678 1.76204 2.46191 1.4825 2.85779 1.2911C3.25367 1.09969 3.68163 1.00061 4.11441 1.00017H8.79042C9.54686 0.992016 10.2802 1.28522 10.8537 1.82513C11.4273 2.36504 11.8019 3.11481 11.9078 3.9347C12.1051 5.57269 12.4711 7.18099 12.9988 8.72891C13.2085 9.33957 13.2539 10.0032 13.1296 10.6413C13.0053 11.2793 12.7165 11.865 12.2974 12.3288L10.3179 14.4956C12.5368 18.767 15.7677 22.3036 19.6699 24.7323L21.6495 22.5656C22.0732 22.1069 22.6083 21.7907 23.1912 21.6547C23.7741 21.5186 24.3804 21.5683 24.9383 21.7978C26.3524 22.3754 27.8217 22.7761 29.3181 22.9921C30.0753 23.109 30.7668 23.5265 31.2611 24.1651C31.7554 24.8036 32.018 25.6188 31.999 26.4555Z" stroke="#C5942E" stroke-width="2" stroke-linecap="round" stroke-linejoin="round"/>
</svg>
