<svg width="34" height="34" viewBox="0 0 34 34" fill="none" xmlns="http://www.w3.org/2000/svg">
<path d="M24.7889 20.3745C24.3662 20.1634 22.2866 19.1463 21.8994 19.0046C21.5108 18.8644 21.229 18.7949 20.9457 19.2171C20.6653 19.6379 19.8539 20.5856 19.6077 20.8661C19.3614 21.148 19.1137 21.182 18.691 20.9724C18.2682 20.7599 16.9046 20.3164 15.289 18.8828C14.0321 17.7664 13.1823 16.388 12.9361 15.9659C12.6898 15.5451 12.9105 15.317 13.1211 15.1074C13.3119 14.9189 13.5453 14.6158 13.756 14.3707C13.9681 14.1242 14.0378 13.9485 14.1802 13.6666C14.3211 13.3861 14.2513 13.141 14.1446 12.93C14.0378 12.7189 13.1923 10.6463 12.8407 9.80337C12.4962 8.98313 12.1475 9.09504 11.8884 9.08088C11.6422 9.06954 11.3604 9.06671 11.0771 9.06671C10.7953 9.06671 10.3369 9.17154 9.94974 9.59371C9.56257 10.0145 8.46938 11.033 8.46938 13.1056C8.46938 15.1768 9.98532 17.1785 10.196 17.4604C10.4081 17.7409 13.1795 21.9938 17.4227 23.817C18.4319 24.2505 19.2191 24.5098 19.834 24.7024C20.8475 25.024 21.7699 24.9787 22.4972 24.8696C23.31 24.7492 24.9996 23.851 25.3526 22.8679C25.7056 21.8847 25.7056 21.0418 25.5989 20.8661C25.4935 20.6904 25.2131 20.5856 24.7889 20.3745ZM17.0711 30.8621H17.0654C14.5456 30.8623 12.0722 30.188 9.90419 28.9099L9.39033 28.6068L4.0653 29.9979L5.48588 24.8299L5.15137 24.3001C3.74281 22.0678 2.99765 19.4844 3.002 16.8484C3.00343 9.12763 9.31631 2.84614 17.0768 2.84614C20.8347 2.84614 24.3676 4.3053 27.0237 6.95163C28.3342 8.25017 29.373 9.79449 30.0798 11.4952C30.7867 13.1959 31.1476 15.0193 31.1417 16.8598C31.1374 24.5806 24.8259 30.8621 17.0711 30.8621ZM29.0464 4.94138C27.4781 3.37019 25.612 2.1244 23.5564 1.27619C21.5007 0.427981 19.2964 -0.00577467 17.0711 5.80514e-05C7.74058 5.80514e-05 0.146613 7.55796 0.142342 16.847C0.142342 19.8164 0.920956 22.7149 2.40274 25.2691L0 34L8.97469 31.6568C11.4566 33.0026 14.2377 33.7078 17.064 33.7082H17.0711C26.4003 33.7082 33.9957 26.1503 33.9999 16.8598C34.0068 14.6459 33.5726 12.4527 32.7223 10.4069C31.872 8.36116 30.6226 6.5035 29.0464 4.94138Z" fill="#C5942E"/>
</svg>
